<?xml version="1.0" encoding="utf-8"?>
<!-- Generator: Adobe Illustrator 25.2.1, SVG Export Plug-In . SVG Version: 6.00 Build 0)  -->
<svg version="1.1" id="Capa_1" xmlns="http://www.w3.org/2000/svg" xmlns:xlink="http://www.w3.org/1999/xlink" x="0px" y="0px"
	 viewBox="0 0 151.5 114.8" style="enable-background:new 0 0 151.5 114.8;" xml:space="preserve">
<style type="text/css">
	.st0{fill:#FEFEFE;}
	.st1{fill:#0377BC;}
	.st2{fill:#0677BB;}
</style>
<circle class="st0" cx="73.2" cy="57.4" r="52.1"/>
<g>
	<path class="st1" d="M73.3,73.1c0-1.5,0-2.9,0-4.4c0-1.6-0.7-2.7-2-3.6c-0.5-0.3-1.1-0.5-1.7-0.7c-0.2-0.1-0.2-0.1-0.2-0.3
		c0.5-1.2,1-2.5,1.5-3.7c0.6-1.6,0.9-3.2,1-4.9c0.2-2.5-0.1-4.9-0.7-7.3c-0.5-2.4-2.4-4-4.9-4.3c-1.6-0.2-3.1,0.1-4.6,0.6
		c-0.1,0-0.2,0.1-0.2,0c-0.1-0.1,0-0.2,0-0.2c0.5-2.4,1.3-4.6,2.6-6.7c1.7-2.6,4-4.3,7.1-4.7c3.6-0.5,7,0.3,10.1,2.3
		c3.1,2,5.2,4.9,6.6,8.3c0.1,0.2,0,0.3-0.2,0.3c-1.1,0.1-2.1,0.3-3.1,0.8c-1.7,0.9-2.7,2.3-2.9,4.2c-0.2,1.6,0.1,3.1,0.6,4.6
		c0.6,1.9,1.5,3.6,2.4,5.4c0.9,1.7,1.8,3.3,3,4.7c0.1,0.2,0.1,0.3,0,0.4c-0.9,0.8-1.4,1.8-1.7,2.9c-0.2,0.8-0.3,1.7-0.4,2.5
		c-0.1,2.8,0,5.6-0.1,8.3c-0.1,2.4-0.8,4.6-2.6,6.3c-0.9,0.9-2,1.5-3.2,1.8c-1.6,0.4-2.9-0.1-4-1.4c-1.1-1.4-1.7-3-2.1-4.8
		c-0.3-1.6-0.3-3.2-0.3-4.8C73.3,74.3,73.3,73.7,73.3,73.1C73.3,73.1,73.3,73.1,73.3,73.1z"/>
	<path class="st1" d="M64.4,33.4c-0.5,0.4-0.9,0.9-1.3,1.3c-1.7,2-2.9,4.3-3.7,6.8c-0.5,1.5-0.8,3.1-1,4.7c-0.2,1.2-0.1,2.4,0,3.6
		c0.1,2,0.2,4-0.1,5.9C58,58,58.4,60,59.5,61.9c0.7,1.2,1.6,2.3,2.7,3.2c0.1,0.1,0.2,0.2,0,0.3c-1.3,1.4-2.5,2.9-3.8,4.3
		c-0.3,0.4-0.7,0.7-1.1,1c-0.8,0.5-1.6,0.5-2.5,0c-0.9-0.5-1.5-1.2-2-2.1c-1.1-1.7-1.9-3.5-2.6-5.4c-1.2-3.3-2.1-6.6-2.8-10
		c-0.5-2.1-0.9-4.2-1.2-6.4c-0.3-1.8-0.3-3.6-0.1-5.4c0.2-1.6,0.5-3.2,1.2-4.6c1.3-2.6,3.3-4.3,6.2-5c1.8-0.4,3.5-0.3,5.3,0
		c1.9,0.3,3.7,0.8,5.4,1.5C64.3,33.3,64.3,33.4,64.4,33.4z"/>
	<path class="st1" d="M85.5,35.3C85.5,35.3,85.5,35.3,85.5,35.3c-0.1-0.1-0.1-0.1-0.1-0.1c0,0,0,0,0,0c0-0.3-0.2-0.5-0.6-0.5
		c0,0,0,0,0,0c0-0.1,0-0.1,0-0.2c-0.2-0.2-0.3-0.3-0.5-0.4c-0.2-0.1-0.3-0.3-0.5-0.3l0,0c0,0,0,0,0,0c-0.1-0.2-0.2-0.3-0.5-0.3
		c0,0,0,0,0,0c0-0.1,0-0.1-0.1-0.2c-0.4-0.2-0.7-0.5-1.2-0.7c-0.1,0-0.3-0.2-0.3-0.2c0-0.3-0.2-0.2-0.3-0.2c-0.1,0-0.2,0-0.2-0.1
		c0.2-0.1,0.5,0,0.7-0.1c0.6-0.2,1.2-0.2,1.9-0.2c0.4,0,0.8,0,1.2,0c0.6,0,1.3,0.1,1.9,0.2c0.4,0.1,0.8,0.2,1.2,0.2
		c0.6,0.1,1.1,0.3,1.7,0.4c0.5,0.1,1,0.4,1.4,0.6c0.2,0.1,0.3,0.2,0.5,0.2c0,0,0,0,0,0c0,0.3,0.2,0.1,0.3,0.2c0,0,0,0,0,0
		c0,0.1,0.1,0.2,0.2,0.2c0.4,0.1,0.6,0.4,1,0.6c0.2,0.1,0.3,0.3,0.5,0.4c0.1,0,0.2,0.1,0.3,0.2c0.1,0.1,0.1,0.2,0.3,0.2
		c0.1,0,0.1,0,0.1,0.1c0,0.3,0.2,0.2,0.3,0.2c0,0,0,0,0,0c0.1,0.3,0.3,0.4,0.6,0.5c0,0,0,0,0,0c0,0.1,0,0.1,0.1,0.1l0,0c0,0,0,0,0,0
		c0,0.1,0,0.2,0.2,0.2c0,0,0,0,0,0c0,0.1,0.1,0.2,0.2,0.2c0,0,0,0,0,0c0,0.1,0,0.2,0.2,0.2l0,0c0,0,0,0,0,0c0,0.1,0,0.1,0.1,0.1
		c0,0,0,0,0,0c0,0.1,0.1,0.2,0.2,0.3c0.1,0.1,0.1,0.2,0.3,0.1c0,0,0,0,0,0c0,0.2,0.1,0.4,0.3,0.5c0.3,0.2,0.4,0.6,0.6,0.9
		c0.3,0.6,0.4,1.2,0.4,1.9c0,0.6,0.2,1.1,0.1,1.7c0,0,0,0,0,0c0,0.1,0,0.1,0,0.2c-0.1,0.1-0.1,0.3-0.1,0.4c0,0.3,0,0.5,0,0.8
		c-0.1,0.6-0.2,1.3-0.3,1.9c-0.1,0.5-0.4,0.9-0.3,1.5c0,0,0,0,0,0.1c-0.2,0.3-0.2,0.7-0.3,1.1c-0.1,0.5-0.2,1-0.4,1.4
		c-0.2,0.5-0.2,0.9-0.4,1.4c-0.2,0.4-0.3,0.9-0.4,1.3c-0.1,0.2-0.1,0.3-0.2,0.4c-0.1,0.1,0.1,0.2,0,0.3c-0.1,0.3-0.2,0.6-0.3,0.9
		c-0.1,0.2-0.1,0.3-0.1,0.5c0,0,0,0,0,0c-0.2,0-0.2,0.2-0.2,0.3c-0.1,0.3-0.4,0.6-0.3,1c0,0,0,0,0,0c-0.2,0.1-0.2,0.2-0.2,0.4
		c0,0,0,0,0,0c-0.1,0-0.1,0.1-0.1,0.1c-0.1,0.4-0.4,0.8-0.6,1.3c-0.1,0.4-0.3,0.7-0.5,1c-0.1,0.1-0.1,0.2-0.2,0.2
		c-0.1,0-0.2,0.1-0.1,0.2c0.1,0.2-0.1,0.4-0.2,0.6c0,0.1-0.1,0.1-0.1,0.1c0,0.5-0.4,0.8-0.6,1.2c-0.2,0.6-0.6,1.1-0.9,1.6
		c-0.1,0.1-0.2,0.4-0.3,0.4c-0.2,0-0.2-0.2-0.3-0.4c0,0-0.1-0.1-0.1-0.1c-0.1-0.1-0.2-0.6-0.2-0.8c0,0,0,0,0,0c0.1,0,0.2,0,0.2-0.1
		c0.1-0.6,0.5-1.1,0.6-1.7c0.1-0.5,0.3-1,0.2-1.5c0,0,0-0.1,0-0.1c0.1-0.1,0.1-0.2,0.1-0.4c0-0.6,0-1.1-0.1-1.7
		c0-0.8-0.3-1.6-0.3-2.4c0-0.2-0.1-0.5-0.1-0.7c0,0-0.1,0-0.1-0.1c0,0,0-0.1,0-0.1c0,0,0-0.1,0-0.1c0-0.9,0.1-1.8,0.2-2.6
		c0.1-0.6,0.2-1.2,0.2-1.9c0-0.6,0.1-1.1,0.1-1.7c0-0.5,0-1.1,0-1.6c0-0.1,0-0.2,0-0.3c-0.2-0.7-0.4-1.4-0.7-2.1
		c-0.2-0.5-0.4-0.9-0.6-1.3c-0.1-0.2-0.1-0.3-0.3-0.4c0,0,0,0,0,0c0-0.3-0.1-0.5-0.3-0.6l0,0c0,0,0,0,0,0c0-0.1,0.1-0.3-0.2-0.3
		c0,0,0,0,0,0c0-0.1,0-0.2,0-0.2c-0.2-0.2-0.3-0.5-0.5-0.7c-0.1-0.1-0.1-0.2-0.3-0.2c0,0,0,0,0,0c0-0.1,0-0.1-0.1-0.1c0,0,0,0,0,0
		c0-0.3-0.2-0.4-0.3-0.6c0-0.1-0.1-0.1-0.2,0c0,0,0,0,0,0c0-0.1,0-0.2-0.2-0.2c0,0,0,0,0,0c0,0,0-0.1-0.1-0.1c0,0,0,0,0,0
		c0-0.2,0.1-0.4-0.2-0.4c0,0,0,0-0.1-0.1c-0.3-0.3-0.6-0.7-0.9-1.1c-0.1-0.1-0.2-0.3-0.4-0.2c0,0,0,0,0,0
		C85.8,35.3,85.7,35.3,85.5,35.3z M88.7,38.8C88.8,38.8,88.8,38.8,88.7,38.8c0.1-0.1,0.1-0.1,0-0.1C88.7,38.7,88.7,38.7,88.7,38.8
		C88.7,38.8,88.7,38.8,88.7,38.8z"/>
	<path class="st1" d="M63.5,62.6C63.5,62.6,63.5,62.6,63.5,62.6c0-0.2-0.1-0.3-0.3-0.3c0,0,0,0,0,0c0-0.1,0-0.1-0.1-0.1c0,0,0,0,0,0
		c0-0.1,0-0.2-0.2-0.2c0,0,0,0,0,0c0-0.1-0.2-0.3,0-0.4c0,0,0-0.1,0-0.1c0-0.1-0.1,0-0.1,0c-0.1,0.1-0.2,0-0.3-0.1
		c0-0.1-0.2-0.1-0.2-0.2c0,0,0,0,0,0c0-0.3-0.3-0.5-0.4-0.7c-0.1-0.3-0.4-0.5-0.4-0.8c0.1,0,0.1,0,0.1-0.1c0,0,0-0.1-0.1-0.1
		c-0.1,0-0.1,0.1-0.1,0.2c-0.1,0-0.1-0.1-0.2-0.2c-0.2-0.4-0.3-0.9-0.4-1.4c-0.1-0.7-0.1-1.3,0-2c0-0.2,0.1-0.4,0-0.5
		c0,0,0-0.1,0-0.1c0.1,0,0.1-0.1,0.1-0.2c0-0.7,0.1-1.4,0.1-2.1c0.1-0.8-0.1-1.6-0.1-2.5c0-0.1,0-0.1-0.1-0.2c0-0.1,0-0.1,0-0.2
		c0.1-0.4,0-0.9,0-1.3c0-0.1-0.1-0.1-0.1-0.1c0-0.1,0-0.1,0-0.2c0.1-0.2,0-0.3,0-0.5c0-0.1,0-0.2,0.1-0.3c0.3-0.3,0.7-0.4,1-0.7
		c0.2-0.2,0.6-0.2,0.8-0.4c1.2-0.4,2.4-0.6,3.7-0.2c0.1,0.2,0.3,0.2,0.5,0.2l0,0c0,0,0,0,0,0c0,0.1,0,0.1,0.1,0.1c0,0,0,0,0,0
		c-0.1,0.1-0.1,0.3,0.1,0.2c0,0,0.1,0,0.1,0c0,0,0,0,0,0c0,0.2,0,0.3,0.2,0.2c0,0,0,0,0,0c0,0,0,0.1,0.1,0.1c0,0,0,0,0,0
		C67.8,47.8,68,47.9,68,48c-0.1,0-0.2-0.1-0.3-0.1c-0.6-0.1-1.3-0.2-1.9-0.1c-0.2,0-0.5,0.2-0.7,0.3c-0.3,0.2-0.2,1.1,0.2,1.2
		c0,0,0,0,0,0c0,0.1,0.1,0.2,0.2,0.2c0,0,0,0,0,0c0,0,0,0,0.1,0.1c0,0,0,0,0,0c0,0.1,0,0.2,0.1,0.3c0.5,0.6,1.2,0.9,1.9,0.7
		c0.2,0,0.5-0.1,0.6-0.3c0,0,0,0,0,0c0.1,0,0.2,0,0.3-0.1c0.1-0.1,0.1,0,0.2,0.1c0,0.1-0.1,0.3,0,0.4c0.1,0.1,0.1,0.2,0.1,0.4
		c0,0.2-0.1,0.4,0,0.7c0.1,0,0-0.2,0.2-0.2c0,0,0,0.1,0,0.1c-0.1,0.1-0.1,0.2,0,0.3c0,0.3,0.1,0.6,0.1,0.9c0,1.5,0,3-0.2,4.5
		c-0.1,0.8-0.5,1.6-0.7,2.4c-0.1,0.4-0.3,0.8-0.5,1.2c-0.1,0.1-0.1,0.2-0.1,0.4c0,0,0,0,0,0c-0.1,0.1-0.3,0.3-0.2,0.5c0,0,0,0,0,0
		c0,0-0.1,0-0.1,0.1c-0.3,0.6-0.6,1.3-0.8,2c0,0.1-0.1,0.2-0.2,0.1c-0.3-0.1-0.7-0.2-1-0.4c-0.2-0.1-0.4-0.3-0.7-0.3c0,0,0,0,0,0
		c-0.1-0.2-0.2-0.3-0.5-0.3c0,0,0,0,0,0c0-0.2-0.1-0.2-0.3-0.2c0,0,0,0,0,0C63.8,62.7,63.8,62.6,63.5,62.6
		C63.6,62.7,63.6,62.7,63.5,62.6C63.6,62.6,63.5,62.6,63.5,62.6z"/>
	<path class="st2" d="M65.9,71.1c-1.3,0-2.6-0.2-3.9-0.6c-0.2-0.1-0.5-0.2-0.7-0.4c-0.4-0.3-0.4-0.7,0-1c0.5-0.4,1.1-0.6,1.7-0.7
		c0.8-0.2,1.7-0.4,2.5-0.7c0.5-0.2,1-0.4,1.4-0.7c0.1,0,0.1-0.1,0.2-0.1c0.9-0.1,1.8,0.1,2.7,0.5c0.4,0.2,0.7,0.6,0.7,1.1
		c0,0.2,0,0.4,0,0.5c0.1,0.4-0.1,0.7-0.5,0.9c-1,0.6-2,0.9-3.2,1C66.6,71.1,66.2,71.1,65.9,71.1z"/>
	<path class="st2" d="M89.6,69.7c-0.3,0-0.7,0-1-0.1c-0.2,0-0.3-0.1-0.3-0.3c0.1-0.9,0.2-1.8,0.6-2.6c0.3-0.6,0.7-0.9,1.2-1.2
		c0.1,0,0.1,0,0.2,0c0.7,0.3,1.4,0.5,2.1,0.5c1.4,0.1,2.7-0.1,4.1-0.4c0.3-0.1,0.7-0.1,1-0.1c0.5,0,0.6,0.3,0.4,0.7
		c-0.3,0.5-0.7,0.8-1.1,1.1c-1.5,1.1-3.3,1.8-5.1,2.1C90.9,69.6,90.3,69.7,89.6,69.7z"/>
	<path class="st2" d="M84.3,50.2c0.6,0.3,1.1,0.5,1.6,0.4c0.8-0.1,1.4-0.6,1.7-1.3c0.2-0.5,0.1-1-0.4-1.2c-0.7-0.3-1.3-0.3-2-0.1
		c-0.1,0-0.2,0-0.3,0.1c0,0,0,0,0,0c0.2-0.4,0.6-0.6,0.9-0.8c0.7-0.4,1.5-0.5,2.3-0.6c0.2,0,0.2,0.1,0.2,0.2
		c-0.1,1.1-0.2,2.1-0.3,3.2c-0.2,1.5-0.1,3,0.1,4.5c0.2,1,0.3,2,0.2,3.1c0,0.5-0.1,1.1-0.3,1.6C86.4,56.3,84.7,53.5,84.3,50.2z"/>
	<path class="st2" d="M91.7,33.2c-0.2,0-0.3-0.1-0.5-0.2c-0.5-0.2-0.9-0.5-1.4-0.6c-0.6-0.1-1.1-0.4-1.7-0.4
		c-0.4-0.1-0.8-0.2-1.2-0.2c-0.6-0.1-1.2-0.2-1.9-0.2c-0.4,0-0.8,0-1.2,0c-0.6,0-1.3,0.1-1.9,0.2c-0.2,0.1-0.5,0-0.7,0.1
		c0,0.1,0.1,0.1,0.2,0.1c0.1,0,0.4,0,0.3,0.2c0,0.1,0.2,0.2,0.3,0.2c0.4,0.2,0.8,0.5,1.2,0.7c0.1,0,0.1,0.1,0.1,0.2
		c-0.8-0.5-1.6-1-2.5-1.4c0.7-0.2,1.4-0.3,2.1-0.3c2.8-0.3,5.5,0.1,8.1,1.3C91.2,33,91.4,33.1,91.7,33.2z"/>
	<path class="st2" d="M94.8,54.1c0-0.2,0-0.3,0.1-0.5c0.1-0.3,0.2-0.6,0.3-0.9c0-0.1-0.2-0.2,0-0.3c0.1-0.1,0.2-0.3,0.2-0.4
		c0.1-0.4,0.3-0.9,0.4-1.3c0.2-0.4,0.3-0.9,0.4-1.4c0.2-0.5,0.3-1,0.4-1.4c0.1-0.4,0.1-0.8,0.3-1.1c0,0,0,0,0-0.1
		c-0.1-0.5,0.2-1,0.3-1.5c0.1-0.6,0.1-1.3,0.3-1.9c0.1-0.3,0-0.5,0-0.8c0-0.2,0-0.3,0.1-0.4c0,1.1-0.2,2.2-0.4,3.3
		C96.8,48.3,96,51.2,94.8,54.1C94.9,54,94.8,54,94.8,54.1z"/>
	<path class="st2" d="M89.4,40.4c0.2,0.1,0.2,0.3,0.3,0.4c0.2,0.4,0.4,0.9,0.6,1.3c0.3,0.7,0.5,1.4,0.7,2.1c0,0.1,0,0.2,0,0.3
		c0,0.5,0,1.1,0,1.6c0,0.6-0.1,1.1-0.1,1.7c0,0.6-0.1,1.3-0.2,1.9c-0.1,0.9-0.2,1.8-0.2,2.6c0,0,0,0.1,0,0.1c-0.1-0.8,0-1.6,0.1-2.4
		c0.2-1.6,0.3-3.1,0.4-4.7c0-1.2-0.4-2.3-0.8-3.4C89.9,41.5,89.7,41,89.4,40.4z"/>
	<path class="st2" d="M89.9,61.3c0,0.2,0.1,0.7,0.2,0.8c0,0,0.1,0.1,0.1,0.1c0.1,0.1,0.1,0.4,0.3,0.4c0.1,0,0.2-0.2,0.3-0.4
		c0.3-0.5,0.7-1.1,0.9-1.6c0.2-0.4,0.6-0.7,0.6-1.2c0-0.1,0.1-0.1,0.1-0.1c0.1-0.2,0.3-0.3,0.2-0.6c0-0.1,0-0.2,0.1-0.2
		c0.1,0,0.2-0.1,0.2-0.2c0.2-0.3,0.4-0.7,0.5-1c0.1-0.4,0.4-0.8,0.6-1.3c0-0.1,0.1-0.1,0.1-0.1c-0.3,0.8-0.7,1.6-1.1,2.3
		c-0.8,1.6-1.6,3.2-2.6,4.7c-0.3-0.4-0.5-0.7-0.7-1.1C89.6,61.6,89.8,61.5,89.9,61.3z"/>
	<path class="st2" d="M67.6,61.3c0-0.1,0-0.2,0.1-0.4c0.2-0.4,0.4-0.8,0.5-1.2c0.2-0.8,0.6-1.6,0.7-2.4c0.3-1.5,0.3-3,0.2-4.5
		c0-0.3-0.1-0.6-0.1-0.9c0-0.1,0-0.2,0-0.3c0.4,2.9,0.2,5.7-0.9,8.4C67.9,60.5,67.8,60.9,67.6,61.3z"/>
	<path class="st2" d="M97.7,42C97.7,41.9,97.7,41.9,97.7,42c0-0.6-0.1-1.2-0.1-1.8c0-0.7-0.1-1.3-0.4-1.9c-0.2-0.3-0.2-0.7-0.6-0.9
		c-0.2-0.1-0.3-0.3-0.3-0.5c0.8,0.7,1.2,1.7,1.3,2.8C97.7,40.4,97.8,41.2,97.7,42z"/>
	<path class="st2" d="M61.6,59.8c0,0.3,0.3,0.5,0.4,0.8c0.1,0.3,0.4,0.4,0.4,0.7c-0.7-1-1.2-2.1-1.4-3.3c-0.1-0.8-0.1-1.6,0.1-2.4
		c0.1,0.2,0,0.4,0,0.5c-0.1,0.7-0.1,1.3,0,2c0.1,0.5,0.2,0.9,0.4,1.4C61.5,59.6,61.5,59.8,61.6,59.8L61.6,59.8z"/>
	<path class="st2" d="M90.5,52.6C90.5,52.7,90.6,52.7,90.5,52.6c0.1,0.3,0.2,0.5,0.2,0.8c0,0.8,0.2,1.6,0.3,2.4c0,0.6,0,1.1,0.1,1.7
		c0,0.1,0,0.3-0.1,0.4c0.1-1.5-0.1-3-0.3-4.5C90.6,53.2,90.5,52.9,90.5,52.6z"/>
	<path class="st2" d="M65.4,49.4c-0.4-0.2-0.5-1-0.2-1.2c0.2-0.2,0.4-0.3,0.7-0.3c0.6-0.1,1.3-0.1,1.9,0.1c0.1,0,0.1,0.1,0.3,0.1
		c0-0.1-0.2-0.2-0.1-0.4c0.2,0.2,0.3,0.3,0.4,0.6c-0.4-0.2-0.9-0.3-1.3-0.3c-0.5,0-0.9,0-1.4,0.1c-0.5,0.2-0.6,0.5-0.4,0.9
		C65.2,49.1,65.3,49.3,65.4,49.4z"/>
	<path class="st2" d="M64.6,63.4c0.3,0,0.4,0.2,0.7,0.3c0.3,0.1,0.7,0.2,1,0.4c0.1,0,0.2,0,0.2-0.1c0.2-0.7,0.5-1.4,0.8-2
		c0,0,0.1,0,0.1-0.1c-0.2,0.7-0.5,1.3-0.7,2c-0.1,0.4,0,0.4-0.5,0.3C65.6,64,65.1,63.8,64.6,63.4z"/>
	<path class="st2" d="M61.2,50.6c0.1,0,0.1,0.1,0.1,0.2c0,0.8,0.1,1.6,0.1,2.5c0,0.7-0.1,1.4-0.1,2.1c0,0.1,0,0.2-0.1,0.2
		C61.2,53.9,61.2,52.3,61.2,50.6z"/>
	<path class="st2" d="M94.6,35.2c-0.1,0-0.3,0.1-0.3-0.2c0,0-0.1-0.1-0.1-0.1c-0.1,0-0.2-0.1-0.3-0.2c-0.1-0.1-0.2-0.2-0.3-0.2
		c-0.2,0-0.3-0.3-0.5-0.4c-0.3-0.2-0.6-0.4-1-0.6c-0.1,0-0.1-0.1-0.2-0.2C92.9,33.9,93.8,34.5,94.6,35.2z"/>
	<path class="st2" d="M90.9,58c0.1,0.5,0,1-0.2,1.5c-0.2,0.6-0.5,1.1-0.6,1.7c0,0.1-0.1,0.1-0.2,0.1c0.3-0.6,0.6-1.3,0.8-2
		C90.8,58.9,90.9,58.5,90.9,58z"/>
	<path class="st2" d="M85.7,35.5c0.2,0,0.3,0.1,0.4,0.2c0.3,0.4,0.6,0.7,0.9,1.1c0,0,0,0.1,0.1,0.1c0.3,0,0.2,0.2,0.2,0.4
		C86.8,36.7,86.3,36.1,85.7,35.5z"/>
	<path class="st2" d="M63,47c-0.2,0.2-0.5,0.2-0.8,0.4c-0.3,0.2-0.7,0.4-1,0.7c-0.1,0.1-0.1,0.2-0.1,0.3c0,0.2,0,0.3,0,0.5
		c0-0.1,0-0.2,0-0.2c-0.1-0.5,0.1-0.7,0.5-0.9C62,47.4,62.5,47.2,63,47z"/>
	<path class="st2" d="M68.2,50.3c-0.1,0.2-0.4,0.3-0.6,0.3c-0.8,0.1-1.4-0.1-1.9-0.7c-0.1-0.1-0.1-0.1-0.1-0.3
		c0.2,0.1,0.3,0.3,0.5,0.4C66.7,50.7,67.5,50.8,68.2,50.3z"/>
	<path class="st2" d="M69,51.5c-0.1,0,0,0.2-0.2,0.2c-0.1-0.2,0.1-0.4,0-0.7c0-0.1,0-0.3-0.1-0.4c-0.1-0.1,0-0.2,0-0.4
		c0-0.1,0-0.2-0.2-0.1c-0.1,0.1-0.2,0.1-0.3,0.1c0.2-0.1,0.3-0.2,0.5-0.4C68.8,50.5,68.9,51,69,51.5z"/>
	<path class="st2" d="M83.7,33.8c0.2,0,0.4,0.2,0.5,0.3c0.2,0.1,0.4,0.3,0.5,0.4c0.1,0,0,0.1,0,0.2C84.5,34.4,84.1,34.1,83.7,33.8z"
		/>
	<path class="st2" d="M94.3,55.4c0-0.4,0.2-0.7,0.3-1c0-0.1,0-0.3,0.2-0.3C94.7,54.5,94.5,55,94.3,55.4z"/>
	<path class="st2" d="M88.1,38.4c0.2,0,0.2,0.1,0.3,0.2c0.2,0.2,0.3,0.5,0.5,0.7c0.1,0.1,0,0.2,0,0.2C88.7,39.2,88.4,38.8,88.1,38.4
		z"/>
	<path class="st2" d="M61.1,49c0.1,0,0.1,0.1,0.1,0.1c0,0.4,0.1,0.9,0,1.3C61.1,50,61.1,49.5,61.1,49z"/>
	<path class="st2" d="M62.4,61.3c0.1,0.1,0.2,0.1,0.2,0.2c0,0.1,0.1,0.2,0.3,0.1c0,0,0.1-0.1,0.1,0c0,0,0,0.1,0,0.1
		c-0.2,0.1,0,0.2,0,0.4C62.7,61.8,62.5,61.6,62.4,61.3z"/>
	<path class="st2" d="M84.8,34.7c0.4,0.1,0.6,0.3,0.6,0.5C85.2,35,85,34.9,84.8,34.7z"/>
	<path class="st2" d="M87.5,37.6c0.1,0,0.2,0,0.2,0c0.1,0.2,0.3,0.4,0.3,0.6C87.9,38,87.7,37.8,87.5,37.6z"/>
	<path class="st2" d="M95.2,35.7c-0.3-0.1-0.5-0.2-0.6-0.5C94.8,35.3,95,35.5,95.2,35.7z"/>
	<path class="st2" d="M96.3,36.9c-0.1,0.1-0.2,0-0.3-0.1c-0.1-0.1-0.2-0.2-0.2-0.3C96,36.5,96.2,36.7,96.3,36.9z"/>
	<path class="st2" d="M64.1,63.1c0.2,0,0.4,0.1,0.5,0.3C64.4,63.3,64.2,63.2,64.1,63.1z"/>
	<path class="st2" d="M89.1,39.8c0.2,0.1,0.3,0.3,0.3,0.6C89.3,40.3,89.2,40.1,89.1,39.8z"/>
	<path class="st2" d="M83.3,33.4c0.2,0,0.4,0.1,0.5,0.3C83.6,33.7,83.4,33.6,83.3,33.4z"/>
	<path class="st2" d="M67.6,47.3c0,0-0.1,0-0.1,0c-0.3,0.1-0.2,0-0.1-0.2C67.4,47.2,67.5,47.3,67.6,47.3z"/>
	<path class="st2" d="M67.2,47.1c-0.2,0-0.4,0-0.5-0.2C66.9,46.9,67,47,67.2,47.1z"/>
	<path class="st2" d="M67.4,61.8c-0.1-0.2,0.1-0.4,0.2-0.5C67.5,61.5,67.5,61.7,67.4,61.8z"/>
	<path class="st2" d="M92,33.4c-0.1,0-0.3,0.1-0.3-0.2C91.8,33.3,91.9,33.3,92,33.4z"/>
	<path class="st2" d="M63.8,62.9c0.1,0,0.3,0,0.3,0.2C64,63,63.9,63,63.8,62.9z"/>
	<path class="st2" d="M63.6,62.7c0.2,0,0.2,0,0.2,0.2C63.7,62.8,63.6,62.8,63.6,62.7z"/>
	<path class="st2" d="M67.8,47.6c-0.2,0-0.2-0.1-0.2-0.2C67.7,47.4,67.8,47.5,67.8,47.6z"/>
	<path class="st2" d="M94.1,55.8c0-0.1,0-0.3,0.2-0.4C94.2,55.5,94.2,55.7,94.1,55.8z"/>
	<path class="st2" d="M88.9,39.6c0.2,0,0.2,0.1,0.2,0.3C89,39.8,88.9,39.7,88.9,39.6z"/>
	<path class="st2" d="M63.2,62.3c0.2,0,0.2,0.1,0.2,0.2C63.4,62.5,63.3,62.4,63.2,62.3z"/>
	<path class="st2" d="M62.9,62c0.2,0,0.2,0.1,0.2,0.2C63,62.2,63,62.1,62.9,62z"/>
	<path class="st2" d="M65.5,49.6c-0.1,0-0.2-0.1-0.2-0.2C65.5,49.5,65.5,49.5,65.5,49.6z"/>
	<path class="st2" d="M87.4,37.4c0.2,0,0.2,0.1,0.2,0.2C87.5,37.5,87.4,37.4,87.4,37.4z"/>
	<path class="st2" d="M85.5,35.3c0.1,0,0.3,0,0.2,0.2C85.7,35.5,85.6,35.4,85.5,35.3z"/>
	<path class="st2" d="M95.4,35.9c-0.1,0-0.2,0-0.2-0.2C95.3,35.8,95.4,35.9,95.4,35.9z"/>
	<path class="st2" d="M95.8,36.3c-0.1,0-0.2,0-0.2-0.2C95.7,36.1,95.7,36.2,95.8,36.3z"/>
	<path class="st2" d="M95.6,36.1c-0.1,0-0.2-0.1-0.2-0.2C95.5,36,95.6,36,95.6,36.1z"/>
	<path class="st2" d="M88.1,38.3c0.1,0,0.1,0,0.1,0.1C88.1,38.4,88.1,38.3,88.1,38.3z"/>
	<path class="st2" d="M95.3,35.8c-0.1,0-0.1,0-0.1-0.1C95.2,35.7,95.2,35.7,95.3,35.8z"/>
	<path class="st2" d="M63.1,62.2c0.1,0,0.1,0,0.1,0.1C63.2,62.3,63.1,62.3,63.1,62.2z"/>
	<path class="st2" d="M67.3,47.2c-0.1,0-0.1,0-0.1-0.1C67.3,47.1,67.3,47.1,67.3,47.2z"/>
	<path class="st2" d="M95.9,36.4c-0.1,0-0.1,0-0.1-0.1C95.8,36.3,95.8,36.3,95.9,36.4z"/>
	<path class="st2" d="M63.5,62.6C63.5,62.6,63.6,62.6,63.5,62.6C63.6,62.7,63.5,62.6,63.5,62.6z"/>
	<path class="st2" d="M65.6,49.7C65.6,49.7,65.5,49.6,65.6,49.7C65.5,49.6,65.6,49.7,65.6,49.7z"/>
	<path class="st2" d="M67.9,47.7C67.8,47.7,67.8,47.6,67.9,47.7C67.8,47.6,67.9,47.6,67.9,47.7z"/>
	<path class="st2" d="M85.4,35.2C85.5,35.2,85.5,35.2,85.4,35.2C85.5,35.2,85.5,35.2,85.4,35.2z"/>
	<path class="st2" d="M87.3,37.3C87.4,37.3,87.4,37.3,87.3,37.3C87.4,37.3,87.3,37.3,87.3,37.3z"/>
	<path class="st2" d="M88.7,38.8C88.7,38.8,88.7,38.8,88.7,38.8c0-0.1,0-0.1,0-0.1C88.8,38.7,88.8,38.7,88.7,38.8
		C88.8,38.8,88.8,38.8,88.7,38.8z"/>
	<path class="st2" d="M61.6,59.8c0-0.1,0-0.1,0.1-0.2c0,0,0.1,0,0.1,0.1C61.8,59.7,61.7,59.8,61.6,59.8
		C61.6,59.8,61.6,59.8,61.6,59.8z"/>
</g>
</svg>
